<svg version="1.1"
      xmlns="http://www.w3.org/2000/svg"
      xmlns:xlink="http://www.w3.org/1999/xlink"  id="snapshot-54728" width="100" height="100" viewBox="0 0 100 100"><desc>This image was made on Patterninja.com</desc><defs>
<!-- image 86817 -->
<g id="transformed-86817" data-image="86817" transform="translate(-89.45939253091318, -96.40020746865642) rotate(45, 89.45939253091318, 96.40020746865642)"><g><svg version="1.1" width="178.91878506182636px" height="192.80041493731284px" viewBox="0 0 178.91878506182636 192.80041493731284"><g id="original-86817"><svg xmlns="http://www.w3.org/2000/svg" version="1.1" viewBox="0 0 967 1039" xmlns:xlink="http://www.w3.org/1999/xlink" preserveAspectRatio="xMidYMid meet">
  <path d="M534 150.1c-53.9 4-97 15.3-155.7 40.9-10.2 4.5-24.1 10.1-30.7 12.5-45 16-70.2 31.4-85.7 52.2-8.2 11-15.1 28.6-17.1 43.8-.6 4.4-1.7 10.5-2.5 13.5s-1.5 6.4-1.5 7.5c-.1 3 4.9 46.3 6.8 59.2.9 6.1 1.3 11.7.8 12.5-.4.7-.3 1 .1.6.5-.5 1.9 3.1 3.1 8 3.2 12.2 12.4 47 16.9 63.7 4.3 16.1 12 40.6 17.2 54.6l3.6 9.7-2.1 6.1-2.1 6.2 2.3.8c1.2.5 4.1 1.5 6.4 2.2 2.3.7 4.6 1.7 5.1 2.3 1.2 1.5 8.4 19.7 11 27.7 1.2 3.6 4.3 10.4 6.9 15 2.7 4.6 6.7 11.8 9 15.9s6.7 10.4 9.8 14c9.8 11.1 17.4 21 26.6 34.8 4.8 7.2 15.1 20.6 22.7 29.7 15.5 18.5 21.9 27.2 31.6 42.5 11.2 17.8 24.2 45.9 31 67 1 3 5.5 13.5 10.1 23.3s10.7 24 13.4 31.5c2.8 7.5 7.1 18.3 9.6 24 7.3 16.5 12 29.9 16.4 46.3 2.3 8.5 5.9 20.1 8 25.9 2.1 5.8 5.4 16.3 7.4 23.5 2 7.1 4 13.3 4.5 13.8s3-.2 5.8-1.6l4.9-2.5 2.3-12.9c2.9-15.8 9.5-39.1 15.5-54.2 2.5-6.3 6.2-17.1 8.2-24 10.1-34.7 26.4-67.2 49-97.4 7.6-10.2 9.6-13.8 12.4-21.7 11.8-33.5 29.9-64.7 54.6-94 6.5-7.8 7.6-9.8 12.2-22.1 9.5-25.2 20.1-45.5 35.3-67.9 5.4-7.9 9.1-14.8 11.8-21.7 6.8-17.4 6.9-17.4 15.1-20.3 3.9-1.4 7.4-2.8 7.6-3.2.3-.4-.3-3.3-1.2-6.3l-1.8-5.5 3.3-7.8c21.5-50.5 30.9-79.2 36.2-110.7 1.9-11.3 2.1-15.3 1.6-31-.7-19.9-1.7-28-5.3-43.5-4-17.2-12.7-41.6-22.4-62.5-1.7-3.9-4.3-9.9-5.6-13.4-1.5-3.7-5.5-10.4-9.5-15.7-3.8-5.1-9.7-13.7-13.1-19.1-3.4-5.4-7.6-11.1-9.5-12.6-1.8-1.6-4.7-4.9-6.4-7.3-2-3-3.6-4.3-4.5-4-.9.3-5-2.3-10.2-6.5-29.7-24-56.6-35.3-96.3-40.4-14.9-2-55.3-2.7-72.9-1.4zm68 26.4c38.5 4.5 63.6 15.9 94.2 42.7 14 12.3 44.5 63.2 55.3 92.2 15.9 42.9 17 81.3 3.5 126.8-5.6 19-18.6 53.5-19.8 52.4-.2-.3-2.5-5.8-5.2-12.3-28.9-71.6-61-111.2-104.6-128.8-11-4.5-27.4-8.8-41.9-11-17.3-2.7-16.4-1.5-9.4-12.3l5.9-9.2-30.1-46.3c-16.6-25.4-31-47.1-32-48.2-1.9-1.9-1.9-1.9-3.8 0-1 1.1-15.5 22.8-32 48.2L452 317l6.3 9.8 6.3 9.7-15 4.9c-40.1 12.8-62.9 24.6-84.3 43.5-9.6 8.5-22.5 23.7-30.1 35.6-9.3 14.5-22.6 42-29.3 60.7-1.3 3.8-2.7 6.8-3 6.8-.7 0-7.9-23.5-14.2-46.5-15.4-55.9-22.6-102.7-19.9-129.7 3-28.7 13-45.2 37.2-61.3 12.6-8.3 44.5-22.6 53.9-24 2.9-.4 19.3-6.6 20.1-7.6 1.8-2.3 33.9-15.7 54.6-22.9 29.9-10.3 58.5-16.4 93.9-19.9 14.7-1.5 59-1.2 73.5.4zM484.7 366.7c2.8 4.3 10.8 16.5 17.7 27.1 7.3 11.1 13.2 19.2 13.9 19 .6-.3 8.9-12.2 18.2-26.6 19.7-30.4 15.2-27.5 38-24.2 37.7 5.5 58.1 14.1 77.8 33 9.6 9.2 19.8 21.3 24.7 29.4l2.3 3.9-2.4-.6c-1.3-.3-6.8-1.7-12.2-3.1-14.1-3.7-29.4-5.1-41.1-3.7-23.2 2.7-48.5 15.5-70.1 35.4l-7.7 7 3.5 3.5 3.5 3.4 9.2-8.1c9.9-8.8 22-17.1 31.5-21.9 13.9-6.9 33.6-11 46.9-9.8 8.6.9 25.9 4.6 38.1 8.4l9 2.8 4.2 7.9c8.8 16.7 34.3 78.7 34.3 83.5 0 .9-1.1 2.2-2.3 2.7-6.2 2.9-29.7 38.2-29.7 44.7 0 3.1-5.8 12.5-12 19.6-3.1 3.6-12.3 15.3-20.4 26-8.1 10.7-16.5 21.7-18.6 24.5-2.2 2.7-4.8 6.9-5.7 9.2-1 2.4-2.1 4.3-2.6 4.3-.4 0-2-1.8-3.5-4-17.7-26.2-24.9-34.9-36.4-44.1-7.5-5.9-11.3-8.3-15.6-9.5-3.1-.9-10.2-2.9-15.7-4.5-9-2.7-11.9-3-29.7-3.6-21.6-.7-45.8.8-57.3 3.4-16 3.7-41.2 14.6-54.5 23.6-2.5 1.7-7.9 6.5-12 10.6-6 6.1-8.3 9.3-11.5 16.3-2.2 4.8-4.3 8.7-4.6 8.8-.4 0-2.6-3-4.9-6.7-8.4-13.5-27.3-38.2-37.7-49.3-4-4.3-8.6-10.7-10.9-15-3-5.8-6.4-10-15-18.5-9.7-9.6-13.2-14.2-17.2-22.6-.1-.4.5-.9 1.6-1.1 1.2-.3 2.4-2.5 3.6-6.6 1.2-3.9 2.6-6.4 3.7-6.7 1.4-.5 1.6-1.3 1.2-3.8-.9-6 19.5-60.3 30.4-80.7 7.5-14 6.8-13.4 18.5-15.9 17.7-3.7 26.6-4.3 37.9-2.6 19.9 2.9 38.3 12.8 62.6 33.6 5.1 4.4 9.5 7.9 9.8 7.9.3 0 1.8-1.5 3.4-3.3l3-3.2-2.7-2.9c-4.6-4.8-22.3-18.7-31.6-24.8-10.6-6.8-24.5-13.1-35.2-15.8-9.2-2.4-28.6-2.7-40.2-.6-4 .7-7.5 1-7.7.6-.7-1.2 11.5-14.7 19.1-21.1 14.3-11.9 27.5-19.8 45.4-27 11.8-4.7 45.4-15.7 48.5-15.8 1.5-.1 3.5 2 7.2 7.6zm50.8 271.7c11.6 1.8 16.8 3.2 22.9 6.3 10.2 5.2 18.8 13 27.8 25.3 2.8 3.8 10.5 22 14.5 34 1.3 4.1 3.6 12.9 4.9 19.5l2.5 12-2.2 10.9c-2.8 13.6-6.3 19.6-12.2 20.8-2.1.4-8.8 3.1-14.8 5.9-7.7 3.6-13.5 5.5-19.6 6.6-13.4 2.3-13.9 2.1-27.9-12.3-10-10.2-12.7-12.4-15.1-12.4-4.4 0-7.3 2.7-10.4 9.5-2.7 6-6.8 10.3-12.8 13.5-1.3.7-7 1.5-12.7 1.8-9.7.5-10.6.3-15.9-2.2-7-3.5-10.4-6.4-15-12.7-5.1-6.8-10.8-20.4-11-25.9-.1-2.5-1-9.2-2-14.8-1.6-9.2-1.6-11.9-.5-24.4 1-12 1.5-14.6 3.5-17.6 1.3-2 3.9-7.2 5.7-11.6 4.2-10.6 9.7-16 22.7-22.6 10.5-5.2 16.9-7.4 28.3-9.5 9.7-1.7 28.2-1.8 39.3-.1z" fill="rgba(0, 0, 0, 0.25)" stroke="none"/>
  <path d="M600.1 453.6c-14.1 3.8-27.4 14-36.8 28.2-3.1 4.8-6 8.9-6.4 9.2-1.2.9-3.2 8.8-2.6 10.2.6 1.7 13.1 5.2 24.2 6.8 17.8 2.7 43.3-3.1 58.3-13.1 5.5-3.7 21.2-18.8 21.2-20.5 0-.6-.7-2.4-1.5-4.1-1.2-2.3-4.2-4.4-13.3-9.1-6.4-3.3-14.5-6.7-17.8-7.6-7.6-2-18.1-2-25.3 0zm23 11.4c7.2 2.3 18.1 7.9 18.6 9.6.5 1.6-9.9 9.7-17.7 13.8-8.5 4.4-18 7.3-28.9 8.7-7.4.9-10.2.9-16.6-.4-4.3-.9-8-1.9-8.3-2.2-2.3-2.2 14.9-21.5 22.8-25.5 6.5-3.4 14.9-5.9 19.6-5.9 2.3-.1 7 .8 10.5 1.9z" fill="rgba(0, 0, 0, 0.25)" stroke="none"/>
  <path d="M596.8 471.6c-3.4 1.8-5.8 6.2-5.8 10.5 0 4.8 5.6 9.9 10.9 9.9 7.8 0 13.1-4.9 13.1-12.1 0-2.2-1-4.1-3.4-6.5-2.8-2.8-4.1-3.4-7.7-3.4-2.4.1-5.6.7-7.1 1.6z" fill="rgba(0, 0, 0, 0.25)" stroke="none"/>
  <path d="M390.4 459.9c-7.6 2.1-16.5 5.6-25.6 10.2l-5.6 2.8v4.9c-.1 4.7.1 5.1 6.6 11.4 12.3 12 20.2 15.9 36.6 18.4 16.5 2.6 33.7.8 54.1-5.6 7.1-2.2 10.9-3.9 12.9-6 2.8-2.8 2.9-3.1 1.5-5.6-.8-1.5-4.8-6.2-9-10.4-8.7-8.7-18-14.1-31.9-18.5-11.6-3.7-29.1-4.4-39.6-1.6zm34.3 13.2c10.9 3.4 28.3 13.1 28.3 15.9 0 2.7-21.8 7-35.5 7-12.7 0-19.2-1.2-27.4-5.1-6.2-2.9-15.1-9.2-15.1-10.8 0-1.1 15.6-7.4 22-8.8 7.1-1.6 19-.8 27.7 1.8z" fill="rgba(0, 0, 0, 0.25)" stroke="none"/>
  <path d="M406.4 474.9c-3 1.3-6.4 5.9-6.4 8.7 0 3.9 2.1 7.2 5.5 8.9 12 5.6 23.9-5.5 15.7-14.6-2.3-2.6-3.7-3.2-7.8-3.5-2.7-.2-5.9 0-7 .5z" fill="rgba(0, 0, 0, 0.25)" stroke="none"/>
  <path d="M454.8 667.6c-5.5 2.9-5.8 4.6-5.8 36.4 0 24.1.3 29.6 1.5 32 3.2 6.1 1.8 6 65 6s61.8.1 65-6c1.2-2.4 1.5-7.9 1.5-32 0-32-.3-33.5-6-36.5-4.3-2.2-117.1-2.2-121.2.1z" fill="rgba(0, 0, 0, 0.25)" stroke="none"/>
</svg>
</g></svg></g></g>
<!-- /image 86817 -->
</defs><rect x="0" y="0" width="100" height="100" fill="rgba(212, 202, 163, 1)"></rect><use xlink:href="#transformed-86817" transform="translate(-100, -100)"></use><use xlink:href="#transformed-86817" transform="translate(0, -100)"></use><use xlink:href="#transformed-86817" transform="translate(100, -100)"></use><use xlink:href="#transformed-86817" transform="translate(-100, 0)"></use><use xlink:href="#transformed-86817" transform="translate(0, 0)"></use><use xlink:href="#transformed-86817" transform="translate(100, 0)"></use><use xlink:href="#transformed-86817" transform="translate(-100, 100)"></use><use xlink:href="#transformed-86817" transform="translate(0, 100)"></use><use xlink:href="#transformed-86817" transform="translate(100, 100)"></use></svg>